<svg xmlns="http://www.w3.org/2000/svg" width="1500" height="600" viewBox="0 0 1500 600">
  <defs>
    <linearGradient id="bg" x1="0%" y1="0%" x2="100%" y2="100%">
      <stop offset="0%" style="stop-color:#11998e;stop-opacity:1" />
      <stop offset="55%" style="stop-color:#2e8b57;stop-opacity:1" />
      <stop offset="100%" style="stop-color:#0a2e1a;stop-opacity:1" />
    </linearGradient>
    <filter id="glow">
      <feGaussianBlur stdDeviation="12" result="coloredBlur"/>
      <feMerge><feMergeNode in="coloredBlur"/><feMergeNode in="SourceGraphic"/></feMerge>
    </filter>
  </defs>
  <!-- Background -->
  <rect width="1500" height="600" fill="url(#bg)"/>
  <!-- Decorative circles -->
  <circle cx="1300" cy="100" r="280" fill="#38ef7d" opacity="0.08"/>
  <circle cx="200" cy="500" r="200" fill="#38ef7d" opacity="0.06"/>
  <circle cx="750" cy="300" r="400" fill="#11998e" opacity="0.05"/>
  <!-- Grid dots pattern -->
  <g opacity="0.12" fill="#38ef7d">
    <circle cx="80" cy="50" r="2"/><circle cx="80" cy="110" r="2"/><circle cx="80" cy="170" r="2"/><circle cx="80" cy="230" r="2"/><circle cx="80" cy="290" r="2"/><circle cx="80" cy="350" r="2"/><circle cx="80" cy="410" r="2"/><circle cx="80" cy="470" r="2"/><circle cx="80" cy="530" r="2"/><circle cx="80" cy="590" r="2"/><circle cx="160" cy="50" r="2"/><circle cx="160" cy="110" r="2"/><circle cx="160" cy="170" r="2"/><circle cx="160" cy="230" r="2"/><circle cx="160" cy="290" r="2"/><circle cx="160" cy="350" r="2"/><circle cx="160" cy="410" r="2"/><circle cx="160" cy="470" r="2"/><circle cx="160" cy="530" r="2"/><circle cx="160" cy="590" r="2"/><circle cx="240" cy="50" r="2"/><circle cx="240" cy="110" r="2"/><circle cx="240" cy="170" r="2"/><circle cx="240" cy="230" r="2"/><circle cx="240" cy="290" r="2"/><circle cx="240" cy="350" r="2"/><circle cx="240" cy="410" r="2"/><circle cx="240" cy="470" r="2"/><circle cx="240" cy="530" r="2"/><circle cx="240" cy="590" r="2"/><circle cx="320" cy="50" r="2"/><circle cx="320" cy="110" r="2"/><circle cx="320" cy="170" r="2"/><circle cx="320" cy="230" r="2"/><circle cx="320" cy="290" r="2"/><circle cx="320" cy="350" r="2"/><circle cx="320" cy="410" r="2"/><circle cx="320" cy="470" r="2"/><circle cx="320" cy="530" r="2"/><circle cx="320" cy="590" r="2"/><circle cx="400" cy="50" r="2"/><circle cx="400" cy="110" r="2"/><circle cx="400" cy="170" r="2"/><circle cx="400" cy="230" r="2"/><circle cx="400" cy="290" r="2"/><circle cx="400" cy="350" r="2"/><circle cx="400" cy="410" r="2"/><circle cx="400" cy="470" r="2"/><circle cx="400" cy="530" r="2"/><circle cx="400" cy="590" r="2"/><circle cx="480" cy="50" r="2"/><circle cx="480" cy="110" r="2"/><circle cx="480" cy="170" r="2"/><circle cx="480" cy="230" r="2"/><circle cx="480" cy="290" r="2"/><circle cx="480" cy="350" r="2"/><circle cx="480" cy="410" r="2"/><circle cx="480" cy="470" r="2"/><circle cx="480" cy="530" r="2"/><circle cx="480" cy="590" r="2"/><circle cx="560" cy="50" r="2"/><circle cx="560" cy="110" r="2"/><circle cx="560" cy="170" r="2"/><circle cx="560" cy="230" r="2"/><circle cx="560" cy="290" r="2"/><circle cx="560" cy="350" r="2"/><circle cx="560" cy="410" r="2"/><circle cx="560" cy="470" r="2"/><circle cx="560" cy="530" r="2"/><circle cx="560" cy="590" r="2"/><circle cx="640" cy="50" r="2"/><circle cx="640" cy="110" r="2"/><circle cx="640" cy="170" r="2"/><circle cx="640" cy="230" r="2"/><circle cx="640" cy="290" r="2"/><circle cx="640" cy="350" r="2"/><circle cx="640" cy="410" r="2"/><circle cx="640" cy="470" r="2"/><circle cx="640" cy="530" r="2"/><circle cx="640" cy="590" r="2"/><circle cx="720" cy="50" r="2"/><circle cx="720" cy="110" r="2"/><circle cx="720" cy="170" r="2"/><circle cx="720" cy="230" r="2"/><circle cx="720" cy="290" r="2"/><circle cx="720" cy="350" r="2"/><circle cx="720" cy="410" r="2"/><circle cx="720" cy="470" r="2"/><circle cx="720" cy="530" r="2"/><circle cx="720" cy="590" r="2"/><circle cx="800" cy="50" r="2"/><circle cx="800" cy="110" r="2"/><circle cx="800" cy="170" r="2"/><circle cx="800" cy="230" r="2"/><circle cx="800" cy="290" r="2"/><circle cx="800" cy="350" r="2"/><circle cx="800" cy="410" r="2"/><circle cx="800" cy="470" r="2"/><circle cx="800" cy="530" r="2"/><circle cx="800" cy="590" r="2"/><circle cx="880" cy="50" r="2"/><circle cx="880" cy="110" r="2"/><circle cx="880" cy="170" r="2"/><circle cx="880" cy="230" r="2"/><circle cx="880" cy="290" r="2"/><circle cx="880" cy="350" r="2"/><circle cx="880" cy="410" r="2"/><circle cx="880" cy="470" r="2"/><circle cx="880" cy="530" r="2"/><circle cx="880" cy="590" r="2"/><circle cx="960" cy="50" r="2"/><circle cx="960" cy="110" r="2"/><circle cx="960" cy="170" r="2"/><circle cx="960" cy="230" r="2"/><circle cx="960" cy="290" r="2"/><circle cx="960" cy="350" r="2"/><circle cx="960" cy="410" r="2"/><circle cx="960" cy="470" r="2"/><circle cx="960" cy="530" r="2"/><circle cx="960" cy="590" r="2"/><circle cx="1040" cy="50" r="2"/><circle cx="1040" cy="110" r="2"/><circle cx="1040" cy="170" r="2"/><circle cx="1040" cy="230" r="2"/><circle cx="1040" cy="290" r="2"/><circle cx="1040" cy="350" r="2"/><circle cx="1040" cy="410" r="2"/><circle cx="1040" cy="470" r="2"/><circle cx="1040" cy="530" r="2"/><circle cx="1040" cy="590" r="2"/><circle cx="1120" cy="50" r="2"/><circle cx="1120" cy="110" r="2"/><circle cx="1120" cy="170" r="2"/><circle cx="1120" cy="230" r="2"/><circle cx="1120" cy="290" r="2"/><circle cx="1120" cy="350" r="2"/><circle cx="1120" cy="410" r="2"/><circle cx="1120" cy="470" r="2"/><circle cx="1120" cy="530" r="2"/><circle cx="1120" cy="590" r="2"/><circle cx="1200" cy="50" r="2"/><circle cx="1200" cy="110" r="2"/><circle cx="1200" cy="170" r="2"/><circle cx="1200" cy="230" r="2"/><circle cx="1200" cy="290" r="2"/><circle cx="1200" cy="350" r="2"/><circle cx="1200" cy="410" r="2"/><circle cx="1200" cy="470" r="2"/><circle cx="1200" cy="530" r="2"/><circle cx="1200" cy="590" r="2"/><circle cx="1280" cy="50" r="2"/><circle cx="1280" cy="110" r="2"/><circle cx="1280" cy="170" r="2"/><circle cx="1280" cy="230" r="2"/><circle cx="1280" cy="290" r="2"/><circle cx="1280" cy="350" r="2"/><circle cx="1280" cy="410" r="2"/><circle cx="1280" cy="470" r="2"/><circle cx="1280" cy="530" r="2"/><circle cx="1280" cy="590" r="2"/><circle cx="1360" cy="50" r="2"/><circle cx="1360" cy="110" r="2"/><circle cx="1360" cy="170" r="2"/><circle cx="1360" cy="230" r="2"/><circle cx="1360" cy="290" r="2"/><circle cx="1360" cy="350" r="2"/><circle cx="1360" cy="410" r="2"/><circle cx="1360" cy="470" r="2"/><circle cx="1360" cy="530" r="2"/><circle cx="1360" cy="590" r="2"/><circle cx="1440" cy="50" r="2"/><circle cx="1440" cy="110" r="2"/><circle cx="1440" cy="170" r="2"/><circle cx="1440" cy="230" r="2"/><circle cx="1440" cy="290" r="2"/><circle cx="1440" cy="350" r="2"/><circle cx="1440" cy="410" r="2"/><circle cx="1440" cy="470" r="2"/><circle cx="1440" cy="530" r="2"/><circle cx="1440" cy="590" r="2"/>
  </g>
  <!-- Horizontal accent line -->
  <line x1="80" y1="390" x2="500" y2="390" stroke="#38ef7d" stroke-width="2" opacity="0.6"/>
  <!-- Label text -->
  <text x="80" y="330" font-family="'Helvetica Neue', Arial, sans-serif" font-size="64" font-weight="700" fill="white" opacity="0.95" filter="url(#glow)">Stock Market Intelligence</text>
  <!-- Tagline bar -->
  <rect x="80" y="405" width="120" height="4" fill="#38ef7d" rx="2" opacity="0.9"/>
</svg>